<?xml version="1.0" encoding="utf-8"?>
<!-- Generator: Adobe Illustrator 17.0.0, SVG Export Plug-In . SVG Version: 6.00 Build 0)  -->
<!DOCTYPE svg PUBLIC "-//W3C//DTD SVG 1.1//EN" "http://www.w3.org/Graphics/SVG/1.1/DTD/svg11.dtd">
<svg version="1.1" id="Layer_1" xmlns="http://www.w3.org/2000/svg" xmlns:xlink="http://www.w3.org/1999/xlink" x="0px" y="0px"
	 width="60px" height="60px" viewBox="0 0 60 60" enable-background="new 0 0 60 60" xml:space="preserve">
<path fill="#FFFFFF" d="M51.915,0H8.085C3.62,0,0,3.62,0,8.085v43.829C0,56.38,3.62,60,8.085,60h21.616l0.037-21.441h-5.57
	c-0.724,0-1.311-0.585-1.314-1.309l-0.027-6.911c-0.003-0.728,0.587-1.319,1.314-1.319h5.56v-6.678c0-7.75,4.733-11.97,11.646-11.97
	h5.673c0.726,0,1.314,0.588,1.314,1.314v5.828c0,0.726-0.588,1.314-1.314,1.314L43.54,18.83c-3.76,0-4.488,1.787-4.488,4.408v5.781
	h8.261c0.787,0,1.398,0.687,1.305,1.469L47.8,37.4c-0.078,0.661-0.639,1.16-1.305,1.16H39.09L39.053,60h12.862
	C56.38,60,60,56.38,60,51.915V8.085C60,3.62,56.38,0,51.915,0z"/>
</svg>
