<?xml version="1.0" encoding="utf-8"?>
<!-- Generator: Adobe Illustrator 17.0.0, SVG Export Plug-In . SVG Version: 6.00 Build 0)  -->
<!DOCTYPE svg PUBLIC "-//W3C//DTD SVG 1.1//EN" "http://www.w3.org/Graphics/SVG/1.1/DTD/svg11.dtd">
<svg version="1.1" id="Layer_1" xmlns="http://www.w3.org/2000/svg" xmlns:xlink="http://www.w3.org/1999/xlink" x="0px" y="0px"
	 width="60px" height="60px" viewBox="0 0 60 60" enable-background="new 0 0 60 60" xml:space="preserve">
<g>
	<path fill="#FFFFFF" d="M42.126,0H17.874C8.018,0,0,8.018,0,17.874v24.251C0,51.982,8.018,60,17.874,60h24.251
		C51.982,60,60,51.982,60,42.126V17.874C60,8.018,51.982,0,42.126,0z M53.964,42.126c0,6.538-5.3,11.838-11.838,11.838H17.874
		c-6.538,0-11.838-5.3-11.838-11.838V17.874c0-6.538,5.3-11.838,11.838-11.838h24.251c6.538,0,11.838,5.3,11.838,11.838
		L53.964,42.126L53.964,42.126z"/>
	<path fill="#FFFFFF" d="M30,14.482c-8.557,0-15.518,6.961-15.518,15.518S21.443,45.518,30,45.518S45.518,38.557,45.518,30
		S38.557,14.482,30,14.482z M30,39.482c-5.237,0-9.482-4.245-9.482-9.482s4.245-9.482,9.482-9.482c5.237,0,9.482,4.245,9.482,9.482
		C39.482,35.237,35.237,39.482,30,39.482z"/>
	<circle fill="#FFFFFF" cx="45.548" cy="14.598" r="3.718"/>
</g>
</svg>
